<?xml version="1.0" standalone="no"?>
<!DOCTYPE svg PUBLIC "-//W3C//DTD SVG 20010904//EN"
 "http://www.w3.org/TR/2001/REC-SVG-20010904/DTD/svg10.dtd">
<svg version="1.0" xmlns="http://www.w3.org/2000/svg"
 width="821.000000pt" height="821.000000pt" viewBox="0 0 821.000000 821.000000"
 preserveAspectRatio="xMidYMid meet">

<g transform="translate(0.000000,821.000000) scale(0.100000,-0.100000)"
fill="#000000" stroke="none">
<path d="M3860 8194 c-19 -2 -91 -9 -160 -15 -722 -64 -1450 -346 -2048 -793
-511 -383 -902 -847 -1211 -1439 -239 -456 -396 -1028 -429 -1567 -10 -158 3
-565 23 -735 57 -484 187 -923 405 -1356 643 -1283 1896 -2130 3327 -2250 182
-15 675 -6 831 15 361 49 666 127 982 251 1592 628 2646 2205 2597 3885 -10
325 -29 491 -88 770 -217 1029 -843 1956 -1719 2546 -556 375 -1163 596 -1840
669 -136 15 -593 28 -670 19z m400 -254 c296 -15 506 -46 780 -115 546 -138
1059 -400 1507 -769 102 -85 409 -383 401 -391 -5 -5 -1607 477 -1693 509
-118 45 -236 110 -609 333 -198 119 -383 225 -410 236 -70 28 -173 27 -248 -2
-31 -12 -175 -93 -320 -180 -412 -247 -507 -302 -577 -333 -142 -65 -179 -77
-1331 -422 -267 -80 -500 -153 -519 -161 -18 -9 -35 -14 -38 -12 -8 9 307 317
428 417 672 560 1471 864 2344 893 44 2 82 4 85 5 3 1 93 -3 200 -8z m136
-1131 c296 -178 489 -276 664 -337 63 -21 397 -124 743 -228 572 -172 627
-190 627 -209 0 -12 -58 -489 -130 -1061 -71 -571 -131 -1060 -132 -1086 -2
-27 -7 -48 -11 -48 -5 0 -7 126 -5 280 l3 280 -177 0 c-98 0 -178 -2 -178 -4
0 -10 110 -41 180 -50 l75 -11 3 -95 c7 -218 -57 -412 -187 -567 -62 -74 -185
-173 -215 -173 -33 0 -166 110 -228 188 -119 150 -169 299 -171 512 l-2 135
65 8 c60 7 190 43 190 53 0 2 -209 4 -465 4 l-465 0 0 -474 c0 -287 4 -477 9
-481 6 -3 347 -5 760 -5 412 0 752 -3 754 -7 3 -5 3 -20 0 -36 l-5 -27 -737 0
c-478 0 -749 4 -773 10 -21 6 -43 21 -50 33 -10 16 -14 122 -16 415 l-3 392
-25 0 -24 0 0 -450 0 -450 811 0 810 0 -3 -32 -3 -33 -808 -3 -808 -2 3 -58 3
-57 798 -3 799 -2 -6 -38 c-3 -20 -17 -127 -31 -237 -32 -243 -48 -325 -85
-428 -81 -222 -213 -390 -420 -537 -161 -114 -1393 -933 -1411 -937 -16 -4
-1359 882 -1489 982 -194 150 -339 373 -395 609 -16 65 -288 2216 -282 2223 2
2 12 -18 22 -44 31 -82 125 -263 191 -370 l64 -101 0 -202 c0 -120 4 -209 10
-221 10 -18 26 -19 438 -19 320 0 431 3 440 12 8 8 12 48 12 114 0 57 3 105 8
108 4 2 77 -13 161 -35 85 -21 175 -39 201 -39 l48 0 10 -43 c19 -73 49 -92
273 -168 112 -39 223 -74 248 -80 105 -23 167 30 222 191 11 30 36 79 57 109
27 39 62 125 129 320 87 254 91 264 95 216 l3 -50 198 -3 198 -2 -3 62 -3 63
-184 3 c-137 2 -187 -1 -199 -10 -13 -11 -15 -10 -10 3 26 68 58 185 58 210 0
62 -59 131 -122 143 -26 5 -37 15 -53 48 -25 52 -59 78 -113 85 -28 4 -43 11
-47 24 -10 29 -70 76 -109 83 -26 5 -48 1 -79 -12 -42 -19 -44 -19 -77 0 -66
35 -155 14 -191 -46 -11 -17 -31 -68 -46 -113 -15 -46 -30 -83 -34 -83 -3 0
-17 17 -31 38 -23 35 -23 39 -10 87 7 28 16 93 19 146 12 203 -60 377 -230
556 -178 188 -409 298 -649 310 -127 7 -224 -7 -358 -49 -183 -58 -324 -141
-440 -259 -88 -89 -135 -163 -171 -272 l-27 -79 -6 39 c-14 90 -77 615 -74
617 1 2 300 92 663 201 363 108 712 217 775 242 193 75 463 222 800 434 41 27
80 46 86 44 6 -2 132 -76 280 -166z m-3364 -466 c-3 -71 42 -451 227 -1937
127 -1017 242 -1904 256 -1971 48 -236 159 -496 293 -685 80 -112 236 -278
347 -368 44 -35 418 -289 830 -564 413 -275 757 -507 765 -514 13 -13 11 -14
-15 -9 -17 2 -73 10 -125 16 -628 73 -1300 346 -1825 742 -229 172 -509 443
-677 653 -463 578 -742 1247 -823 1974 -22 196 -30 547 -16 720 48 605 231
1177 539 1690 60 101 220 340 227 340 0 0 -1 -39 -3 -87z m6219 -61 c628 -914
832 -2085 548 -3149 -268 -1007 -919 -1847 -1829 -2362 -325 -184 -732 -336
-1098 -410 -167 -34 -364 -64 -388 -59 -9 2 311 222 732 502 412 274 785 527
829 561 162 127 345 334 446 506 97 167 179 383 219 577 11 55 114 853 230
1774 247 1971 263 2105 255 2118 -3 6 -3 10 2 10 4 0 29 -30 54 -68z m-4206
-362 c98 -31 188 -78 278 -146 73 -54 77 -59 77 -97 0 -21 -7 -67 -16 -101
-58 -230 -176 -392 -347 -476 -45 -22 -96 -43 -113 -46 -27 -5 -32 -2 -44 26
-58 139 -305 107 -385 -50 -49 -97 -43 -229 16 -310 38 -53 91 -86 167 -105
60 -16 65 -16 83 1 13 12 19 28 17 48 -3 27 -9 32 -66 52 -102 35 -142 85
-142 177 0 92 70 167 157 167 47 0 50 -3 72 -87 7 -25 18 -43 29 -45 56 -12
225 46 325 112 159 104 272 271 332 492 l18 68 24 -33 c36 -49 81 -145 98
-212 25 -98 20 -185 -22 -360 -3 -14 17 -54 60 -119 61 -93 64 -100 54 -132
-6 -19 -13 -34 -16 -33 -3 0 -19 21 -36 46 -41 63 -75 86 -127 86 -81 0 -145
-55 -155 -133 -5 -32 4 -59 56 -169 88 -189 113 -268 115 -371 l1 -85 -47 -3
c-31 -2 -86 8 -155 27 -116 33 -327 69 -434 73 -73 3 -99 -9 -99 -47 0 -39 31
-56 121 -63 l84 -7 0 -75 0 -75 -342 -3 -342 -2 -3 192 -3 193 -52 76 c-119
175 -228 406 -275 589 -74 285 -35 528 111 691 111 124 323 237 531 284 97 22
304 14 395 -15z m956 -866 c11 -13 3 -47 -55 -220 -37 -112 -66 -216 -64 -231
2 -20 11 -30 31 -37 48 -17 67 16 147 259 40 121 77 226 83 233 14 17 47 11
61 -10 8 -14 -6 -67 -68 -250 -86 -252 -90 -282 -39 -294 14 -4 33 -2 42 3 9
5 49 103 88 218 40 114 78 214 84 221 16 19 46 17 58 -3 6 -13 -10 -73 -60
-223 -37 -113 -68 -215 -69 -227 0 -47 61 -71 92 -35 9 9 41 94 72 189 45 133
62 173 77 178 24 8 49 -10 49 -35 0 -39 -230 -704 -256 -737 -27 -36 -73 -133
-94 -198 -15 -47 -37 -75 -59 -75 -18 0 -419 136 -441 150 -12 7 -15 40 -15
167 -1 194 -17 260 -111 453 -35 73 -64 140 -64 151 0 22 32 41 55 33 9 -4 37
-48 62 -98 66 -133 98 -160 137 -117 9 10 55 132 101 271 46 138 89 258 96
266 15 19 43 18 60 -2z m697 -528 c7 -35 -44 -49 -73 -20 -12 13 -13 19 -4 31
18 20 73 13 77 -11z m120 -3 c4 -29 -42 -43 -65 -20 -25 25 -9 49 29 45 25 -2
34 -8 36 -25z m121 13 c14 -17 -10 -46 -38 -46 -24 0 -45 25 -37 45 7 19 60
20 75 1z m235 -172 c19 -19 20 -26 4 -42 -9 -9 -79 -12 -254 -12 -133 0 -249
3 -258 6 -19 7 -21 35 -4 52 9 9 79 12 254 12 207 0 245 -2 258 -16z m6 -99
c10 -12 10 -18 0 -30 -10 -13 -53 -15 -267 -15 -216 0 -254 2 -259 15 -4 8 -4
22 0 30 5 13 43 15 259 15 214 0 257 -2 267 -15z m-175 -101 c8 -17 14 -19 28
-10 14 9 26 1 74 -47 48 -48 56 -60 47 -74 -9 -14 -7 -20 10 -28 18 -9 21 -21
24 -80 3 -61 0 -72 -18 -87 -15 -12 -19 -24 -15 -40 9 -34 -84 -122 -120 -115
-18 3 -26 -1 -30 -14 -5 -16 -17 -19 -68 -20 -83 -2 -90 0 -105 19 -7 10 -23
16 -37 14 -18 -2 -37 9 -71 43 -39 39 -45 51 -41 75 5 22 2 29 -12 33 -39 10
-39 164 0 174 15 4 16 9 8 24 -8 16 -1 28 42 75 45 47 57 54 80 49 21 -5 27
-2 32 15 5 19 11 21 83 18 68 -3 80 -6 89 -24z m1080 -288 c16 -12 17 -16 6
-30 -17 -20 -70 -21 -77 -1 -8 19 13 45 35 45 10 0 26 -6 36 -14z m-7 -85 c8
-5 12 -17 10 -27 -3 -16 -12 -19 -53 -19 -41 0 -50 3 -53 19 -5 23 14 36 53
36 17 0 36 -4 43 -9z m6 -97 c9 -8 16 -17 16 -19 0 -2 -7 -11 -16 -19 -19 -19
-134 -22 -152 -4 -16 16 -15 45 1 51 6 3 40 6 74 6 43 1 66 -4 77 -15z m-630
-97 c9 -15 7 -21 -8 -33 -16 -12 -84 -14 -392 -14 -205 0 -379 3 -388 6 -19 7
-21 50 -3 57 6 3 185 5 396 4 358 -2 385 -3 395 -20z m630 8 c19 -19 11 -43
-18 -51 -11 -2 -59 -4 -105 -2 -65 2 -86 7 -94 20 -8 12 -7 21 2 32 19 23 192
23 215 1z m-543 -91 c9 -11 10 -20 2 -32 -9 -15 -51 -17 -429 -20 -230 -1
-429 0 -441 3 -25 6 -33 49 -10 58 6 3 204 6 438 6 378 1 428 -1 440 -15z
m543 0 c9 -8 16 -17 16 -19 0 -2 -7 -11 -16 -19 -13 -13 -42 -16 -164 -16 -82
0 -155 3 -164 6 -19 7 -21 50 -3 57 6 3 80 6 164 6 125 1 154 -2 167 -15z
m-446 -318 c2 -10 -2 -22 -10 -27 -15 -10 -488 -12 -512 -3 -16 6 -22 35 -9
47 4 4 124 6 267 5 246 -3 261 -4 264 -22z"/>
<path d="M5034 4576 c-3 -7 -4 -35 -2 -62 l3 -49 289 -3 c282 -2 316 1 316 29
0 5 -72 9 -159 9 -88 0 -162 4 -165 9 -4 5 -3 16 0 25 6 15 38 16 298 14 283
-3 291 -4 291 -23 0 -19 -8 -20 -117 -23 -65 -1 -118 -7 -118 -12 0 -24 50
-30 264 -30 l226 0 0 59 c0 44 -4 60 -16 65 -9 3 -261 6 -560 6 -453 0 -546
-2 -550 -14z m1053 -38 c19 -16 4 -37 -32 -44 -60 -11 -103 35 -52 56 24 10
65 4 84 -12z m-841 -3 c11 -28 -16 -45 -71 -45 -55 0 -82 17 -71 45 4 11 22
15 71 15 49 0 67 -4 71 -15z"/>
<path d="M5626 4401 c-29 -32 -156 -89 -226 -102 -36 -6 -71 -13 -77 -15 -9
-2 -13 -29 -13 -91 0 -157 53 -319 144 -448 48 -67 132 -147 179 -171 27 -14
30 -14 65 12 60 45 155 148 191 208 76 126 114 265 109 405 l-3 86 -48 7 c-82
11 -159 40 -226 85 -35 24 -67 43 -71 43 -4 0 -15 -9 -24 -19z m150 -119 c57
-29 118 -102 135 -159 29 -99 9 -190 -58 -264 -58 -64 -104 -84 -198 -84 -94
0 -140 20 -198 84 -51 56 -69 104 -69 181 0 77 18 125 69 181 36 40 73 64 123
80 43 14 152 4 196 -19z"/>
<path d="M5560 4228 c-88 -46 -136 -145 -112 -235 46 -171 254 -221 370 -89
68 78 68 188 0 270 -62 75 -171 98 -258 54z m268 -122 c3 -13 -27 -49 -94
-117 -54 -55 -103 -99 -108 -99 -17 0 -116 103 -116 121 0 32 30 29 69 -6 21
-19 42 -35 47 -35 5 0 45 36 89 80 79 79 106 93 113 56z"/>
<path d="M2864 3279 c-39 -11 -54 -28 -64 -76 -11 -46 7 -93 43 -112 26 -14
27 -16 27 -114 l0 -100 63 -64 64 -63 96 0 97 0 0 -65 0 -65 -87 0 -88 0 -28
35 c-66 83 -187 42 -187 -64 0 -46 35 -95 76 -105 38 -10 90 11 115 45 20 28
22 29 110 29 l89 0 0 -66 0 -66 -90 8 -89 7 -71 -68 c-68 -66 -70 -70 -70
-117 0 -27 -5 -48 -10 -48 -6 0 -22 -12 -35 -26 -50 -54 -20 -161 51 -178 66
-17 134 38 134 107 0 34 -6 46 -40 78 -55 52 -54 81 5 139 44 43 45 44 127 48
l83 4 12 -31 c11 -31 12 -31 82 -31 l71 0 0 -133 c0 -132 0 -134 -25 -147 -33
-17 -58 -73 -50 -110 8 -38 68 -90 103 -90 33 0 81 30 98 62 8 13 13 38 14 57
0 27 -8 42 -40 71 l-40 37 0 126 0 127 130 0 130 0 0 -55 c0 -32 -4 -55 -10
-55 -6 0 -22 -11 -35 -25 -55 -54 -18 -166 59 -181 62 -11 126 44 126 108 0
29 -33 84 -59 98 -17 9 -21 21 -21 60 l0 50 68 0 c71 0 92 10 92 43 0 19 5 19
88 13 85 -7 88 -8 130 -49 34 -33 42 -48 42 -77 0 -28 -6 -38 -29 -52 -20 -11
-34 -30 -41 -56 -16 -52 8 -107 57 -130 30 -14 38 -15 76 -2 58 21 85 73 68
132 -8 26 -22 45 -42 56 -25 15 -29 23 -29 62 0 43 -4 49 -69 114 l-68 68 -89
-4 -89 -3 -3 63 -3 62 91 0 91 0 30 -35 c37 -42 84 -53 128 -31 33 17 61 62
61 96 0 54 -57 110 -112 110 -32 0 -85 -34 -93 -59 -6 -19 -14 -21 -101 -21
l-94 0 0 65 0 65 98 0 98 0 62 63 62 63 0 96 c0 96 0 97 30 118 66 47 59 152
-14 187 -30 14 -41 15 -76 4 -42 -12 -80 -57 -80 -94 0 -32 32 -88 57 -100 22
-10 23 -16 23 -101 l0 -90 -42 -43 -42 -43 -87 0 c-83 0 -88 1 -91 23 -3 19
-10 22 -55 25 l-53 3 0 111 c0 133 -11 175 -62 232 -110 125 -312 100 -391
-49 -18 -33 -22 -62 -25 -167 l-4 -128 -44 0 c-38 0 -46 -4 -56 -25 -11 -24
-15 -25 -92 -25 -80 0 -81 1 -128 41 l-48 41 0 84 0 85 40 38 c33 32 40 44 40
77 0 48 -22 82 -66 100 -37 16 -37 16 -80 3z m752 -124 c44 -29 58 -71 58
-185 l1 -105 -132 -3 -133 -3 0 109 c0 97 3 113 23 143 43 65 122 84 183 44z
m-21 -430 c32 -31 32 -66 0 -103 -21 -26 -25 -40 -25 -100 0 -49 -4 -73 -15
-82 -25 -21 -35 -1 -35 74 0 62 -3 76 -21 92 -30 27 -40 59 -28 91 21 56 82
71 124 28z"/>
<path d="M3521 2687 c-8 -10 -7 -19 4 -33 13 -18 15 -18 31 -2 18 18 13 48 -9
48 -8 0 -20 -6 -26 -13z"/>
<path d="M5180 3038 c0 -32 -10 -80 -24 -125 l-7 -23 221 0 221 0 -7 23 c-14
45 -24 93 -24 125 l0 32 -190 0 -190 0 0 -32z"/>
<path d="M4982 2805 c-7 -14 -12 -28 -12 -30 0 -3 180 -5 400 -5 276 0 400 3
400 11 0 6 -5 19 -10 30 -10 18 -25 19 -389 19 l-378 0 -11 -25z"/>
<path d="M3802 4363 c-7 -2 -17 -14 -23 -25 -9 -16 -5 -33 23 -86 27 -55 33
-77 33 -131 0 -36 -4 -82 -8 -101 -18 -79 62 -108 100 -37 14 25 18 55 18 137
0 90 -4 112 -23 152 -41 82 -76 109 -120 91z"/>
<path d="M4878 4098 c-2 -26 -8 -34 -26 -36 -13 -2 -32 4 -43 14 -18 16 -20
16 -39 -1 -24 -22 -25 -33 -3 -57 25 -28 4 -68 -37 -68 -29 0 -31 -2 -28 -32
2 -27 8 -34 30 -36 42 -5 53 -25 34 -64 -15 -30 -15 -33 2 -51 18 -17 20 -17
49 0 26 14 33 15 47 4 9 -7 16 -24 16 -37 0 -17 7 -25 26 -30 29 -8 41 1 46
35 4 33 33 50 56 33 33 -24 44 -25 65 -4 20 20 20 22 3 41 -27 29 -17 65 19
71 25 4 30 10 33 38 3 28 0 32 -20 32 -45 0 -64 46 -33 80 13 15 13 19 -9 39
-20 19 -24 20 -36 6 -27 -33 -80 -12 -80 32 0 20 -5 23 -34 23 -32 0 -35 -3
-38 -32z m85 -72 c42 -17 68 -57 69 -105 0 -48 -15 -77 -55 -101 -112 -69
-234 70 -150 170 42 50 80 60 136 36z"/>
<path d="M4871 3953 c-34 -43 -7 -93 50 -93 30 0 59 31 59 62 0 26 -36 58 -64
58 -15 0 -33 -11 -45 -27z"/>
</g>
</svg>
